Coordinates
version=1
nRows=54
nColumns=12
inDegrees=yes

Units are S.I. units (second, meters, Newtons, ...)
Angles are in degrees

endheader
time	SC_y	SC_z	SC_x	AC_y	AC_z	AC_x	GH_y	GH_z	GH_yy	EL_x	PS_y
       0.0              -53.55          19.64          13.04          61.26        -0.7503          6.787          75.29          65.22         0.4755          75.47           79.9
   0.04366              -53.55          19.64          13.05          61.25          -0.75          6.786           75.3          65.21         0.4826          75.46          79.91
   0.08731              -53.54          19.64          13.05          61.25        -0.7497          6.784           75.3           65.2         0.4901          75.45          79.92
     0.131              -53.53          19.64          13.05          61.25        -0.7494          6.783          75.31          65.19         0.4982          75.44          79.93
    0.1746              -53.53          19.63          13.06          61.25         -0.749          6.781          75.32          65.19         0.5068          75.43          79.94
    0.2183              -53.52          19.63          13.06          61.24        -0.7486           6.78          75.33          65.18         0.5159          75.42          79.95
    0.2619              -53.51          19.63          13.07          61.24        -0.7482          6.778          75.34          65.17         0.5257          75.41          79.96
    0.3056               -53.5          19.63          13.08          61.24        -0.7478          6.776          75.34          65.16         0.5361          75.39          79.97
    0.3492               -53.5          19.63          13.08          61.23        -0.7473          6.774          75.35          65.15         0.5472          75.38          79.99
    0.3929              -53.49          19.63          13.09          61.23        -0.7468          6.772          75.36          65.14         0.5592          75.37           80.0
    0.4366              -53.48          19.62           13.1          61.22        -0.7463           6.77          75.37          65.12         0.5721          75.35          80.01
    0.4802              -53.47          19.62          13.11          61.22        -0.7457          6.768          75.39          65.11         0.5859          75.33          80.03
    0.5239              -53.45          19.62          13.12          61.21        -0.7451          6.765           75.4           65.1         0.6009          75.31          80.05
    0.5675              -53.44          19.62          13.13          61.21        -0.7445          6.762          75.41          65.08          0.617          75.29          80.07
    0.6112              -53.43          19.61          13.14           61.2        -0.7437          6.759          75.43          65.06         0.6344          75.27          80.09
    0.6548              -53.41          19.61          13.15          61.19        -0.7429          6.756          75.44          65.05         0.6534          75.25          80.11
    0.6985               -53.4          19.61          13.16          61.18        -0.7421          6.752          75.46          65.03         0.6739          75.22          80.13
    0.7421              -53.38           19.6          13.17          61.18        -0.7412          6.748          75.48          65.01         0.6963          75.19          80.16
    0.7858              -53.36           19.6          13.19          61.17        -0.7402          6.744           75.5          64.98         0.7208          75.16          80.18
    0.8295              -53.34          19.59           13.2          61.16        -0.7391          6.739          75.53          64.96         0.7476          75.13          80.22
    0.8731              -53.32          19.59          13.22          61.15        -0.7378          6.734          75.55          64.93          0.777          75.09          80.25
    0.9168              -53.29          19.58          13.24          61.14        -0.7365          6.729          75.58           64.9         0.8094          75.05          80.29
    0.9604              -53.27          19.58          13.26          61.12         -0.735          6.723          75.61          64.86         0.8451          75.01          80.33
     1.004              -53.23          19.57          13.29          61.11        -0.7334          6.716          75.64          64.83         0.8848          74.96          80.37
     1.048               -53.2          19.56          13.31          61.09        -0.7316          6.708          75.68          64.78         0.9288          74.91          80.42
     1.091              -53.16          19.55          13.34          61.07        -0.7295          6.699          75.72          64.74         0.9779          74.84          80.48
     1.135              -53.12          19.54          13.37          61.05        -0.7272           6.69          75.77          64.68          1.033          74.78          80.54
     1.179              -53.07          19.53          13.41          61.03        -0.7247          6.679          75.82          64.62          1.095           74.7          80.61
     1.222              -53.02          19.52          13.45          61.01        -0.7218          6.667          75.88          64.56          1.165          74.61           80.7
     1.266              -52.96          19.51           13.5          60.98        -0.7185          6.653          75.95          64.48          1.244          74.51          80.79
      1.31              -52.89          19.49          13.56          60.94        -0.7148          6.637          76.03          64.39          1.335           74.4          80.89
     1.353              -52.81          19.48          13.62          60.91        -0.7104          6.619          76.12           64.3          1.439          74.27          81.01
     1.397              -52.71          19.45          13.69          60.86        -0.7055          6.598          76.22          64.18          1.559          74.12          81.15
     1.441              -52.61          19.43          13.77          60.81        -0.6997          6.574          76.34          64.05          1.699          73.95          81.31
     1.484              -52.48           19.4          13.87          60.75        -0.6929          6.546          76.48          63.89          1.862          73.74           81.5
     1.528              -52.33          19.37          13.99          60.68         -0.685          6.512          76.65          63.71          2.055           73.5          81.72
     1.572              -52.15          19.33          14.12           60.6        -0.6755          6.472          76.84          63.49          2.284          73.22          81.98
     1.615              -51.94          19.28          14.29           60.5        -0.6642          6.424          77.08          63.23          2.558          72.88           82.3
     1.659              -51.68          19.23          14.49          60.38        -0.6504          6.367          77.36          62.91           2.89          72.46          82.68
     1.703              -51.37          19.16          14.73          60.23        -0.6337          6.296          77.71          62.52          3.295          71.96          83.14
     1.746              -50.98          19.07          15.03          60.05         -0.613          6.209          78.14          62.04          3.796          71.34          83.72
      1.79               -50.5          18.97           15.4          59.82        -0.5872          6.101          78.67          61.45           4.42          70.56          84.44
     1.834              -49.89          18.83          15.87          59.53        -0.5547          5.964          79.35           60.7          5.206          69.58          85.34
     1.877              -49.12          18.66          16.47          59.17        -0.5133           5.79           80.2          59.74          6.205          68.33          86.49
     1.921              -48.13          18.44          17.24           58.7        -0.4604          5.567           81.3          58.52          7.484          66.74          87.96
     1.964              -46.86          18.16          18.22           58.1        -0.3926          5.282          82.71          56.95          9.125           64.7          89.84
     2.008              -45.24           17.8          19.48          57.34        -0.3059          4.917           84.5          54.95          11.22          62.09          92.25
     2.052               -43.2          17.35          21.06          56.37        -0.1968          4.458          86.76          52.43          13.86           58.8          95.28
     2.095              -40.71          16.81          22.98           55.2       -0.06396          3.899          89.52          49.36          17.07           54.8          98.97
     2.139              -37.83          16.17          25.21          53.84        0.09004          3.252          92.71           45.8          20.79          50.17          103.3
     2.183              -34.71          15.48          27.63          52.37         0.2568           2.55          96.16          41.95          24.82          45.15          107.9
     2.226               -31.6          14.79          30.04           50.9         0.4236          1.848          99.62          38.09          28.86          40.13          112.5
      2.27              -28.72          14.16          32.27          49.54         0.5776          1.201          102.8          34.54          32.58          35.49          116.8
     2.314              -26.23          13.61           34.2          48.37         0.7104         0.6416          105.6          31.47          35.79          31.49          120.5
